<svg xmlns="http://www.w3.org/2000/svg" width="400" height="400" viewBox="0 0 220 220">

  <circle cx="110" cy="110" r="100" fill="none" stroke="#1D9E75" stroke-width="1" stroke-dasharray="6 4" opacity="0.35"/>
  <circle cx="110" cy="110" r="80" fill="#0a1f10" stroke="#1D9E75" stroke-width="1.4"/>

  <circle cx="110" cy="58" r="15" fill="#1D9E75"/>

  <rect x="93" y="76" width="34" height="30" rx="4" fill="#1D9E75"/>

  <rect x="70" y="80" width="23" height="9" rx="4" fill="#1D9E75"/>
  <rect x="66" y="87" width="9" height="18" rx="4" fill="#1D9E75" opacity="0.9"/>

  <rect x="127" y="80" width="23" height="9" rx="4" fill="#1D9E75"/>
  <rect x="145" y="87" width="9" height="18" rx="4" fill="#1D9E75" opacity="0.9"/>

  <rect x="88" y="106" width="18" height="10" rx="4" fill="#1D9E75"/>
  <rect x="114" y="106" width="18" height="10" rx="4" fill="#1D9E75"/>

  <rect x="90" y="115" width="12" height="22" rx="4" fill="#1D9E75" opacity="0.85"/>
  <rect x="118" y="115" width="12" height="22" rx="4" fill="#1D9E75" opacity="0.85"/>

  <rect x="86" y="134" width="18" height="8" rx="3" fill="#1D9E75" opacity="0.8"/>
  <rect x="116" y="134" width="18" height="8" rx="3" fill="#1D9E75" opacity="0.8"/>

  <rect x="62" y="103" width="96" height="8" rx="3" fill="#0f3a20" stroke="#1D9E75" stroke-width="1"/>
  <rect x="68" y="72" width="84" height="32" rx="4" fill="#0a2a14" stroke="#1D9E75" stroke-width="1"/>
  <rect x="73" y="76" width="74" height="24" rx="2" fill="#0f3a20"/>
  <rect x="76" y="79" width="30" height="3" rx="1" fill="#1D9E75" opacity="0.7"/>
  <rect x="76" y="85" width="50" height="2" rx="1" fill="#1D9E75" opacity="0.4"/>
  <rect x="76" y="90" width="40" height="2" rx="1" fill="#1D9E75" opacity="0.4"/>
  <rect x="76" y="95" width="46" height="2" rx="1" fill="#1D9E75" opacity="0.3"/>
  <rect x="109" y="79" width="2" height="4" rx="1" fill="#5DCAA5"/>

  <circle cx="110" cy="18" r="5" fill="#0a1f10" stroke="#1D9E75" stroke-width="1"/>
  <circle cx="110" cy="202" r="5" fill="#0a1f10" stroke="#1D9E75" stroke-width="1"/>
  <circle cx="18" cy="110" r="5" fill="#0a1f10" stroke="#1D9E75" stroke-width="1"/>
  <circle cx="202" cy="110" r="5" fill="#0a1f10" stroke="#1D9E75" stroke-width="1"/>
  <circle cx="40" cy="40" r="4" fill="#0a1f10" stroke="#1D9E75" stroke-width="0.8"/>
  <circle cx="180" cy="40" r="4" fill="#0a1f10" stroke="#1D9E75" stroke-width="0.8"/>
  <circle cx="40" cy="180" r="4" fill="#0a1f10" stroke="#1D9E75" stroke-width="0.8"/>
  <circle cx="180" cy="180" r="4" fill="#0a1f10" stroke="#1D9E75" stroke-width="0.8"/>

  <line x1="23" y1="110" x2="30" y2="110" stroke="#1D9E75" stroke-width="0.8" opacity="0.5"/>
  <line x1="197" y1="110" x2="190" y2="110" stroke="#1D9E75" stroke-width="0.8" opacity="0.5"/>
  <line x1="110" y1="23" x2="110" y2="30" stroke="#1D9E75" stroke-width="0.8" opacity="0.5"/>
  <line x1="110" y1="197" x2="110" y2="190" stroke="#1D9E75" stroke-width="0.8" opacity="0.5"/>
  <line x1="43" y1="43" x2="52" y2="52" stroke="#1D9E75" stroke-width="0.8" opacity="0.5"/>
  <line x1="177" y1="43" x2="168" y2="52" stroke="#1D9E75" stroke-width="0.8" opacity="0.5"/>
  <line x1="43" y1="177" x2="52" y2="168" stroke="#1D9E75" stroke-width="0.8" opacity="0.5"/>
  <line x1="177" y1="177" x2="168" y2="168" stroke="#1D9E75" stroke-width="0.8" opacity="0.5"/>

</svg>
