<svg xmlns="http://www.w3.org/2000/svg" width="400" height="320" viewBox="0 0 180 140">
  <rect width="180" height="140" fill="#0c3030"/>
  <rect x="20" y="15" width="140" height="110" rx="8" fill="#062020" stroke="#1D9E75" stroke-width="1"/>
  <rect x="20" y="15" width="140" height="24" rx="8" fill="#0a2e2e"/>
  <rect x="20" y="31" width="140" height="8" fill="#0a2e2e"/>
  <rect x="30" y="25" width="50" height="6" rx="3" fill="#1D9E75" opacity="0.7"/>
  <rect x="90" y="25" width="20" height="6" rx="3" fill="#0f5c46"/>
  <rect x="115" y="25" width="20" height="6" rx="3" fill="#0f5c46"/>
  <rect x="30" y="48" width="120" height="8" rx="2" fill="#0f4034"/>
  <rect x="30" y="60" width="90" height="6" rx="2" fill="#0a2e2e"/>
  <rect x="30" y="70" width="110" height="6" rx="2" fill="#0a2e2e"/>
  <rect x="30" y="80" width="70" height="6" rx="2" fill="#0a2e2e"/>
  <rect x="30" y="94" width="55" height="18" rx="4" fill="#0c3d30" stroke="#1D9E75" stroke-width="0.8"/>
  <rect x="35" y="99" width="14" height="4" rx="2" fill="#1D9E75"/>
  <rect x="35" y="107" width="38" height="3" rx="1" fill="#0f4034"/>
  <rect x="92" y="94" width="58" height="18" rx="4" fill="#0c3d30" stroke="#0F6E56" stroke-width="0.8"/>
  <rect x="97" y="99" width="22" height="4" rx="2" fill="#5DCAA5"/>
  <rect x="97" y="107" width="44" height="3" rx="1" fill="#0f4034"/>
  <circle cx="148" cy="60" r="14" fill="#1D9E75" opacity="0.15" stroke="#1D9E75" stroke-width="1"/>
  <text x="148" y="64" text-anchor="middle" font-size="14" fill="#1D9E75">✎</text>
</svg>
