<svg xmlns="http://www.w3.org/2000/svg" width="400" height="320" viewBox="0 0 180 140">
  <rect width="180" height="140" fill="#1a1200"/>
  <rect x="20" y="15" width="140" height="110" rx="8" fill="#100c00" stroke="#BA7517" stroke-width="1"/>
  <rect x="20" y="15" width="140" height="24" rx="8" fill="#1a1000"/>
  <rect x="20" y="31" width="140" height="8" fill="#1a1000"/>
  <rect x="30" y="22" width="6" height="6" rx="1" fill="#BA7517"/>
  <rect x="40" y="24" width="40" height="4" rx="2" fill="#633806"/>
  <circle cx="60" cy="65" r="28" fill="none" stroke="#BA7517" stroke-width="3"/>
  <path d="M60 65 L60 37 A28 28 0 0 1 84 79 Z" fill="#BA7517" opacity="0.8"/>
  <path d="M60 65 L84 79 A28 28 0 0 1 36 79 Z" fill="#EF9F27" opacity="0.6"/>
  <path d="M60 65 L36 79 A28 28 0 0 1 60 37 Z" fill="#633806" opacity="0.9"/>
  <circle cx="60" cy="65" r="12" fill="#100c00"/>
  <text x="60" y="69" text-anchor="middle" font-size="9" fill="#FAC775" font-weight="700">$</text>
  <rect x="100" y="48" width="52" height="14" rx="3" fill="#1a1000" stroke="#BA7517" stroke-width="0.8"/>
  <rect x="105" y="52" width="22" height="4" rx="2" fill="#EF9F27"/>
  <rect x="100" y="66" width="52" height="14" rx="3" fill="#1a1000" stroke="#633806" stroke-width="0.8"/>
  <rect x="105" y="70" width="16" height="4" rx="2" fill="#BA7517" opacity="0.6"/>
  <rect x="100" y="84" width="52" height="14" rx="3" fill="#1a1000" stroke="#633806" stroke-width="0.8"/>
  <rect x="105" y="88" width="28" height="4" rx="2" fill="#633806"/>
  <rect x="30" y="103" width="120" height="14" rx="4" fill="#1a1000" stroke="#BA7517" stroke-width="0.8"/>
  <rect x="35" y="107" width="40" height="4" rx="2" fill="#EF9F27" opacity="0.5"/>
  <rect x="120" y="107" width="24" height="4" rx="2" fill="#BA7517"/>
</svg>
