<svg xmlns="http://www.w3.org/2000/svg" width="400" height="320" viewBox="0 0 180 140">
  <rect width="180" height="140" fill="#1c0a1c"/>
  <rect x="25" y="18" width="130" height="104" rx="8" fill="#120812" stroke="#993556" stroke-width="1"/>
  <rect x="25" y="18" width="130" height="22" rx="8" fill="#1a0a1a"/>
  <rect x="25" y="32" width="130" height="8" fill="#1a0a1a"/>
  <circle cx="36" cy="29" r="4" fill="#E24B4A"/>
  <circle cx="48" cy="29" r="4" fill="#EF9F27"/>
  <circle cx="60" cy="29" r="4" fill="#639922"/>
  <rect x="35" y="48" width="44" height="62" rx="4" fill="#1a0a20" stroke="#72243E" stroke-width="0.8"/>
  <rect x="40" y="55" width="34" height="5" rx="2" fill="#993556"/>
  <rect x="40" y="64" width="26" height="4" rx="2" fill="#3a1028"/>
  <rect x="40" y="72" width="30" height="4" rx="2" fill="#3a1028"/>
  <rect x="40" y="80" width="22" height="4" rx="2" fill="#3a1028"/>
  <rect x="40" y="88" width="28" height="4" rx="2" fill="#3a1028"/>
  <rect x="40" y="96" width="18" height="4" rx="2" fill="#993556" opacity="0.5"/>
  <rect x="85" y="48" width="62" height="28" rx="4" fill="#1a0a20" stroke="#72243E" stroke-width="0.8"/>
  <rect x="91" y="55" width="24" height="4" rx="2" fill="#ED93B1"/>
  <rect x="91" y="63" width="50" height="4" rx="2" fill="#3a1028"/>
  <rect x="85" y="82" width="62" height="28" rx="4" fill="#1a0a20" stroke="#993556" stroke-width="1.2"/>
  <rect x="91" y="89" width="18" height="4" rx="2" fill="#D4537E"/>
  <rect x="91" y="97" width="44" height="4" rx="2" fill="#3a1028"/>
  <circle cx="148" cy="55" r="8" fill="#72243E"/>
  <rect x="144" y="53" width="8" height="1.5" rx="1" fill="#F4C0D1"/>
  <rect x="144" y="56" width="8" height="1.5" rx="1" fill="#F4C0D1"/>
  <rect x="144" y="59" width="5" height="1.5" rx="1" fill="#F4C0D1"/>
</svg>
