<svg xmlns="http://www.w3.org/2000/svg" width="400" height="320" viewBox="0 0 180 140">
  <rect width="180" height="140" fill="#0f1a0a"/>
  <rect x="25" y="18" width="130" height="104" rx="8" fill="#071208" stroke="#3B6D11" stroke-width="1"/>
  <rect x="25" y="18" width="130" height="22" rx="8" fill="#0a1c0c"/>
  <rect x="25" y="32" width="130" height="8" fill="#0a1c0c"/>
  <rect x="30" y="23" width="60" height="5" rx="2" fill="#3B6D11"/>
  <rect x="35" y="48" width="110" height="52" rx="4" fill="#0a180a" stroke="#27500A" stroke-width="0.8"/>
  <rect x="42" y="55" width="30" height="5" rx="2" fill="#639922"/>
  <rect x="42" y="64" width="96" height="4" rx="2" fill="#1a3010"/>
  <rect x="42" y="72" width="80" height="4" rx="2" fill="#1a3010"/>
  <rect x="42" y="80" width="88" height="4" rx="2" fill="#1a3010"/>
  <rect x="42" y="88" width="60" height="4" rx="2" fill="#1a3010"/>
  <rect x="35" y="106" width="50" height="10" rx="5" fill="#3B6D11"/>
  <text x="60" y="113" text-anchor="middle" font-size="7" fill="#EAF3DE" font-weight="700">Publicar</text>
  <rect x="92" y="106" width="53" height="10" rx="5" fill="#0a1c0c" stroke="#3B6D11" stroke-width="0.8"/>
  <text x="118" y="113" text-anchor="middle" font-size="7" fill="#639922">Vista previa</text>
  <circle cx="148" cy="29" r="9" fill="#27500A"/>
  <text x="148" y="33" text-anchor="middle" font-size="8" fill="#C0DD97" font-weight="700">CMS</text>
</svg>
