<svg xmlns="http://www.w3.org/2000/svg" width="400" height="320" viewBox="0 0 180 140">
  <rect width="180" height="140" fill="#4c1d95"/>
  <rect x="20" y="20" width="140" height="100" rx="8" fill="#2d1060" stroke="#7c3aed" stroke-width="1"/>
  <rect x="20" y="20" width="140" height="22" rx="8" fill="#3b0e8c"/>
  <rect x="20" y="34" width="140" height="8" fill="#3b0e8c"/>
  <circle cx="31" cy="31" r="4" fill="#E24B4A"/>
  <circle cx="43" cy="31" r="4" fill="#EF9F27"/>
  <circle cx="55" cy="31" r="4" fill="#639922"/>
  <rect x="30" y="52" width="36" height="58" rx="4" fill="#1e0a5c" stroke="#534AB7" stroke-width="0.8"/>
  <rect x="34" y="58" width="28" height="5" rx="2" fill="#534AB7"/>
  <rect x="34" y="67" width="20" height="4" rx="2" fill="#3b0e8c"/>
  <rect x="34" y="75" width="24" height="4" rx="2" fill="#3b0e8c"/>
  <rect x="34" y="83" width="18" height="4" rx="2" fill="#3b0e8c"/>
  <rect x="34" y="91" width="22" height="4" rx="2" fill="#7c3aed" opacity="0.6"/>
  <rect x="74" y="52" width="78" height="26" rx="4" fill="#1e0a5c" stroke="#534AB7" stroke-width="0.8"/>
  <rect x="79" y="58" width="30" height="4" rx="2" fill="#a78bfa"/>
  <rect x="79" y="66" width="20" height="4" rx="2" fill="#3b0e8c"/>
  <rect x="113" y="58" width="32" height="14" rx="3" fill="#534AB7" opacity="0.5"/>
  <rect x="74" y="84" width="36" height="26" rx="4" fill="#1e0a5c" stroke="#7c3aed" stroke-width="1.2"/>
  <rect x="79" y="90" width="24" height="4" rx="2" fill="#7c3aed"/>
  <rect x="79" y="98" width="18" height="4" rx="2" fill="#534AB7" opacity="0.5"/>
  <rect x="116" y="84" width="36" height="26" rx="4" fill="#1e0a5c" stroke="#534AB7" stroke-width="0.8"/>
  <rect x="121" y="90" width="14" height="4" rx="2" fill="#3b0e8c"/>
  <rect x="121" y="98" width="20" height="4" rx="2" fill="#3b0e8c"/>
  <circle cx="152" cy="38" r="10" fill="#7c3aed"/>
  <text x="152" y="42" text-anchor="middle" font-size="11" fill="#fff" font-weight="700">3</text>
</svg>
